<svg viewBox="0 0 512 512" xmlns="http://www.w3.org/2000/svg" class="w-full h-full"><defs><filter id="m3-shadow" x="-20%" y="-20%" width="140%" height="140%"><feDropShadow dx="0" dy="4" stdDeviation="8" flood-color="rgba(156, 65, 70, 0.2)" flood-opacity="1"/><feDropShadow dx="0" dy="1" stdDeviation="3" flood-color="rgba(156, 65, 70, 0.2)" flood-opacity="0.8"/></filter><clipPath id="squircle-clip"><path d="M256,0 C336,0 376,0 411,15.5 C446,31 481,66 496.5,101 C512,136 512,176 512,256 C512,336 512,376 496.5,411 C481,446 446,481 411,496.5 C376,512 336,512 256,512 C176,512 136,512 101,496.5 C66,481 31,446 15.5,411 C0,376 0,336 0,256 C0,176 0,136 15.5,101 C31,66 66,31 101,15.5 C136,0 176,0 256,0 Z"/></clipPath></defs><g clip-path="url(#squircle-clip)"><rect width="512" height="512" fill="#FFF8F6"/><g><rect x="86" y="216" width="340" height="130" rx="65" transform="rotate(-35 256 256)" fill="#FFE082" filter="url(#m3-shadow)"/><circle cx="200" cy="200" r="105" fill="#FFDAD6" filter="url(#m3-shadow)"/><rect x="236" y="236" width="150" height="150" rx="42" fill="#9C4146" filter="url(#m3-shadow)"/><circle cx="376" cy="156" r="28" fill="#410006" filter="url(#m3-shadow)"/></g></g></svg>